<svg width="263" height="252" viewBox="0 0 263 252" fill="none" xmlns="http://www.w3.org/2000/svg">
<path d="M262.593 125.615C262.593 194.991 203.81 251.231 131.296 251.231C58.7834 251.231 8.53795e-06 194.991 8.53795e-06 125.615C8.53795e-06 56.2399 58.7834 0 131.296 0C203.81 0 262.593 56.2399 262.593 125.615Z" fill="white"/>
<path fill-rule="evenodd" clip-rule="evenodd" d="M153.184 35.1666L130.631 1C95.1804 61.2208 59.7302 121.442 24.2801 181.663H66.9461C95.6921 132.831 124.439 83.9989 153.184 35.1666V35.1666Z" fill="#68C4E6"/>
<path fill-rule="evenodd" clip-rule="evenodd" d="M139.13 59.0406C166.111 99.915 193.092 140.788 220.072 181.663H249.885C217.652 132.831 185.417 83.9989 153.184 35.1665L139.13 59.0406V59.0406Z" fill="#68C4E6"/>
<path fill-rule="evenodd" clip-rule="evenodd" d="M206.284 160.774H79.2428L66.946 181.663H220.072L206.284 160.774V160.774ZM36.5768 160.774H18V181.663H24.2801L36.5768 160.774ZM18 97.9897H73.5356L85.8324 77.1013H18V97.9897ZM116.202 97.9897H164.84L151.052 77.1013H128.499L116.202 97.9897ZM178.707 118.997H103.836L91.6094 139.767H192.417L178.707 118.997ZM61.1694 118.997H18C18 125.921 18 132.844 18 139.767H48.943L61.1694 118.997Z" fill="#284695"/>
<path fill-rule="evenodd" clip-rule="evenodd" d="M132.152 192.35C135.842 192.35 139.184 193.846 141.602 196.264C144.02 198.682 145.516 202.024 145.516 205.714C145.516 209.404 144.02 212.745 141.602 215.163C139.183 217.581 135.842 219.077 132.152 219.077C128.462 219.077 125.121 217.581 122.703 215.163C120.285 212.745 118.789 209.404 118.789 205.714C118.789 202.024 120.285 198.683 122.703 196.264C125.121 193.846 128.462 192.35 132.152 192.35ZM101.639 208.731C101.639 208.108 102.144 207.603 102.766 207.603C103.389 207.603 103.893 208.108 103.893 208.731V217.95C103.893 218.572 103.389 219.077 102.766 219.077C102.144 219.077 101.639 218.572 101.639 217.95V208.731ZM89.1239 207.309V217.95C89.1239 218.572 88.6191 219.077 87.9969 219.077C87.3743 219.077 86.8694 218.572 86.8694 217.95V206.182C86.8694 205.559 87.3743 205.055 87.9969 205.055H100.78C102.216 205.055 103.522 204.466 104.469 203.519L104.472 203.521C105.418 202.574 106.005 201.267 106.005 199.83C106.005 198.394 105.417 197.088 104.469 196.141C103.522 195.193 102.216 194.605 100.78 194.605H87.9969C87.3743 194.605 86.8694 194.1 86.8694 193.478C86.8694 192.855 87.3743 192.351 87.9969 192.351H100.78C102.838 192.351 104.709 193.192 106.063 194.547C107.418 195.901 108.259 197.772 108.259 199.83C108.259 201.884 107.418 203.754 106.063 205.108V205.113C104.709 206.468 102.838 207.309 100.78 207.309H89.1239V207.309ZM56.6358 207.309V217.95C56.6358 218.572 56.131 219.077 55.5083 219.077C54.8862 219.077 54.3813 218.572 54.3813 217.95V206.182C54.3813 205.559 54.8862 205.055 55.5083 205.055H68.2917C69.7273 205.055 71.0337 204.466 71.9809 203.519L71.9832 203.521C72.9294 202.574 73.5164 201.267 73.5164 199.83C73.5164 198.394 72.928 197.088 71.9809 196.141C71.0337 195.193 69.7273 194.605 68.2917 194.605H55.5083C54.8862 194.605 54.3813 194.1 54.3813 193.478C54.3813 192.855 54.8862 192.351 55.5083 192.351H68.2917C70.3499 192.351 72.2201 193.192 73.5748 194.547C74.9296 195.901 75.7709 197.772 75.7709 199.83C75.7709 201.884 74.9296 203.754 73.5748 205.108V205.113C72.2201 206.468 70.3499 207.309 68.2917 207.309H56.6358V207.309ZM43.2531 216.823C43.8753 216.823 44.3801 217.328 44.3801 217.95C44.3801 218.572 43.8753 219.077 43.2531 219.077H19.8222C19.2 219.077 18.6952 218.572 18.6952 217.95V193.478C18.6952 192.855 19.2 192.351 19.8222 192.351H43.2531C43.8753 192.351 44.3801 192.855 44.3801 193.478C44.3801 194.1 43.8753 194.605 43.2531 194.605H20.9492V204.587H43.2531C43.8753 204.587 44.3801 205.091 44.3801 205.714C44.3801 206.336 43.8753 206.841 43.2531 206.841H20.9492V216.823H43.2531V216.823ZM140.008 197.858C137.998 195.848 135.22 194.605 132.152 194.605C129.085 194.605 126.307 195.848 124.297 197.858C122.287 199.868 121.043 202.646 121.043 205.714C121.043 208.781 122.287 211.559 124.297 213.569C126.307 215.579 129.085 216.823 132.152 216.823C135.22 216.823 137.998 215.579 140.008 213.569C142.018 211.559 143.261 208.781 143.261 205.714C143.261 202.646 142.018 199.868 140.008 197.858Z" fill="#284695"/>
<path fill-rule="evenodd" clip-rule="evenodd" d="M164.315 217.949V193.46C164.315 191.977 162.06 191.977 162.06 193.46V217.949C162.06 218.572 162.565 219.077 163.187 219.077C163.81 219.077 164.315 218.572 164.315 217.949Z" fill="#284695"/>
<path fill-rule="evenodd" clip-rule="evenodd" d="M152.986 194.605H173.389C174.872 194.605 174.871 192.351 173.389 192.351H152.986C152.365 192.351 151.859 192.855 151.859 193.478C151.859 194.1 152.364 194.605 152.986 194.605V194.605Z" fill="#284695"/>
<path fill-rule="evenodd" clip-rule="evenodd" d="M207.623 205.714C207.623 205.091 207.118 204.587 206.496 204.587H184.193V194.605H206.496C207.118 194.605 207.623 194.1 207.623 193.478C207.623 192.855 207.118 192.351 206.496 192.351H183.065C182.443 192.351 181.938 192.855 181.938 193.478V217.95C181.938 218.572 182.443 219.077 183.065 219.077H206.496C207.118 219.077 207.623 218.572 207.623 217.95C207.623 217.328 207.118 216.823 206.496 216.823H184.193V206.841H206.496C207.118 206.841 207.623 206.336 207.623 205.714V205.714Z" fill="#284695"/>
<path fill-rule="evenodd" clip-rule="evenodd" d="M215.006 218.769L239.463 194.265C239.903 193.825 239.903 193.111 239.462 192.671C239.023 192.231 238.309 192.231 237.869 192.671L213.412 217.175C212.971 217.615 212.971 218.329 213.411 218.769C213.851 219.209 214.565 219.209 215.006 218.769Z" fill="#284695"/>
<path fill-rule="evenodd" clip-rule="evenodd" d="M237.868 218.769L213.411 194.265C212.971 193.825 212.971 193.111 213.411 192.671C213.851 192.231 214.565 192.231 215.005 192.671L239.462 217.175C239.902 217.615 239.902 218.329 239.463 218.769C239.022 219.209 238.308 219.209 237.868 218.769Z" fill="#284695"/>
</svg>
